<svg id="svg" version="1.1" xmlns="http://www.w3.org/2000/svg" xmlns:xlink="http://www.w3.org/1999/xlink" width="40px" height="45px" viewBox="0, 0, 400,400"><g id="svgg"><path id="path0" d="M76.628 138.469 C 76.517 138.981,76.148 141.920,75.810 145.000 C 75.471 148.080,75.110 151.095,75.007 151.700 L 74.820 152.800 89.926 152.800 C 108.829 152.800,110.987 153.253,115.855 158.239 C 127.484 170.150,120.147 190.758,102.703 195.180 C 97.220 196.571,91.812 196.927,80.400 196.651 L 69.800 196.395 67.460 216.697 C 66.173 227.864,65.026 237.495,64.910 238.100 L 64.700 239.200 72.750 239.200 C 79.628 239.200,80.800 239.113,80.800 238.602 C 80.800 237.674,83.592 213.515,83.816 212.500 C 84.013 211.612,84.101 211.600,90.508 211.598 C 100.821 211.594,107.433 210.250,114.193 206.783 C 143.412 191.799,146.279 153.864,119.164 141.017 C 112.817 138.010,111.751 137.873,93.315 137.696 L 76.831 137.538 76.628 138.469 M272.648 143.870 C 272.264 147.351,271.851 150.785,271.730 151.500 L 271.511 152.800 286.455 152.806 C 305.709 152.814,307.631 153.225,312.555 158.387 C 320.684 166.909,319.952 179.625,310.804 188.820 C 304.256 195.402,296.860 197.122,277.100 196.656 C 268.401 196.450,266.400 196.501,266.400 196.929 C 266.400 197.218,265.320 206.670,264.000 217.934 C 262.680 229.197,261.600 238.594,261.600 238.815 C 261.600 239.074,264.401 239.178,269.494 239.108 L 277.388 239.000 278.968 225.300 L 280.548 211.600 286.785 211.600 C 297.222 211.600,302.791 210.575,309.434 207.432 C 342.737 191.678,342.969 147.970,309.800 138.746 C 306.780 137.906,305.665 137.847,289.973 137.698 L 273.346 137.539 272.648 143.870 M181.400 140.820 C 174.963 145.716,174.340 146.936,175.807 151.771 C 176.371 153.631,176.045 160.088,175.352 160.782 C 173.749 162.384,169.907 159.780,168.934 156.433 L 168.298 154.243 167.503 155.793 C 165.884 158.948,166.598 162.097,169.692 165.454 C 170.586 166.423,171.246 167.285,171.158 167.370 C 167.456 170.949,162.345 169.982,161.189 165.482 C 160.187 161.582,160.173 161.576,159.461 164.679 C 158.176 170.275,158.675 172.981,161.569 176.121 C 163.540 178.259,163.536 177.775,161.628 182.390 C 159.843 186.710,159.817 186.731,157.669 185.635 C 154.849 184.197,152.600 180.608,151.781 176.237 C 151.414 174.282,151.063 174.750,150.159 178.400 C 148.469 185.218,149.355 189.325,153.440 193.608 L 155.714 195.992 155.202 199.096 C 154.564 202.958,154.629 202.896,152.126 202.045 C 147.212 200.375,145.273 197.965,143.568 191.406 L 142.530 187.413 141.226 190.794 C 137.306 200.960,137.521 205.913,142.208 213.434 C 144.470 217.063,144.510 217.000,140.566 215.993 C 134.131 214.352,131.907 211.748,131.245 205.081 C 130.786 200.456,130.750 200.460,128.844 205.336 C 123.765 218.326,125.315 223.478,137.294 233.427 L 139.188 235.000 138.320 242.273 L 137.451 249.547 132.625 252.073 L 127.800 254.600 127.519 257.000 C 127.364 258.320,127.151 259.985,127.044 260.700 L 126.850 262.000 149.025 262.000 C 161.221 262.000,171.200 261.850,171.200 261.666 C 171.200 261.483,172.370 251.317,173.800 239.076 C 175.230 226.836,176.400 216.546,176.400 216.210 C 176.400 215.674,178.202 215.600,191.200 215.600 L 206.000 215.600 206.000 216.684 C 206.000 217.787,201.364 258.888,201.012 260.900 L 200.820 262.000 222.964 262.000 L 245.108 262.000 245.366 259.700 C 245.507 258.435,245.715 256.770,245.827 256.000 L 246.031 254.600 241.815 252.078 C 239.099 250.453,237.601 249.316,237.604 248.878 C 237.608 248.047,238.708 238.368,239.032 236.310 C 239.240 234.990,239.639 234.560,242.533 232.542 C 256.309 222.937,259.049 216.828,255.870 202.800 L 255.372 200.600 254.638 203.197 C 252.351 211.291,249.003 214.564,241.373 216.163 C 237.933 216.884,237.980 217.025,240.632 213.968 C 247.087 206.529,248.752 201.538,247.627 192.997 C 246.828 186.926,246.926 186.976,244.774 191.534 C 241.777 197.883,237.793 201.448,232.806 202.245 L 231.106 202.517 231.403 199.161 C 231.649 196.385,231.847 195.704,232.550 195.223 C 238.504 191.145,240.874 186.771,241.085 179.477 L 241.237 174.200 239.365 177.721 C 237.186 181.823,234.963 184.213,232.069 185.568 C 229.540 186.752,229.749 186.980,228.799 181.992 L 228.012 177.867 228.906 177.245 C 233.365 174.141,234.815 171.446,235.058 165.814 L 235.231 161.800 233.852 164.400 C 231.042 169.697,228.079 170.914,224.278 168.330 L 222.804 167.329 224.804 165.435 C 228.825 161.628,230.018 159.038,229.182 155.931 L 228.732 154.263 227.574 156.381 C 226.005 159.251,225.663 159.613,223.716 160.477 C 221.927 161.270,220.000 161.119,220.000 160.186 C 220.000 157.916,221.036 153.107,221.887 151.427 C 224.343 146.582,224.063 145.561,219.092 141.212 C 217.086 139.458,215.378 138.089,215.296 138.171 C 215.176 138.291,208.020 199.460,208.005 200.500 C 208.002 200.665,201.340 200.800,193.200 200.800 C 180.372 200.800,178.400 200.721,178.400 200.205 C 178.400 199.604,184.980 142.843,185.414 139.700 C 185.712 137.546,185.703 137.548,181.400 140.820 M31.139 160.873 L 1.701 174.102 1.264 177.951 C 0.594 183.859,-0.066 196.184,0.074 200.200 L 0.200 203.800 25.400 216.488 C 39.260 223.466,50.784 229.181,51.008 229.188 C 51.346 229.198,53.411 213.989,53.096 213.802 C 53.043 213.771,41.313 208.173,27.030 201.363 C 12.746 194.552,0.995 188.786,0.916 188.548 C 0.836 188.309,13.751 182.545,29.934 175.598 L 59.095 163.079 59.989 155.515 C 60.481 151.354,60.814 147.881,60.730 147.797 C 60.646 147.712,47.330 153.597,31.139 160.873 M347.820 148.929 C 347.497 150.927,346.401 162.934,346.530 163.063 C 346.593 163.127,358.425 168.748,372.823 175.556 C 387.719 182.599,399.000 188.157,399.000 188.454 C 399.000 188.761,387.285 194.045,370.400 201.354 C 354.670 208.162,341.750 213.768,341.689 213.811 C 341.495 213.947,340.066 228.993,340.230 229.161 C 340.317 229.249,353.801 223.233,370.194 215.791 L 400.000 202.260 399.994 198.230 C 399.984 191.785,398.905 177.308,398.150 173.483 C 397.945 172.449,365.813 155.778,350.913 148.975 L 348.026 147.657 347.820 148.929 M63.984 246.500 C 63.974 246.775,63.561 250.375,63.065 254.500 L 62.163 262.000 70.081 262.000 C 74.437 262.000,78.001 261.955,78.002 261.900 C 78.004 261.845,78.363 258.830,78.800 255.200 C 79.237 251.570,79.596 248.015,79.598 247.300 L 79.600 246.000 71.800 246.000 C 65.835 246.000,63.996 246.118,63.984 246.500 M260.398 246.863 C 260.396 247.158,260.037 250.370,259.600 254.000 C 258.469 263.387,258.139 262.400,262.413 262.400 C 268.921 262.400,272.510 258.791,269.820 254.950 C 269.304 254.213,269.330 253.941,270.055 252.475 C 271.034 250.495,270.809 248.924,269.348 247.550 C 268.126 246.402,260.402 245.808,260.398 246.863 M287.526 254.408 L 282.851 262.400 284.621 262.400 C 286.250 262.400,286.470 262.273,287.400 260.800 L 288.410 259.200 292.037 259.200 L 295.664 259.200 296.293 260.800 C 296.895 262.333,296.996 262.400,298.703 262.400 C 300.241 262.400,300.447 262.304,300.204 261.700 C 300.049 261.315,298.932 258.210,297.721 254.800 C 296.510 251.390,295.340 248.105,295.121 247.500 C 294.799 246.614,294.476 246.402,293.461 246.408 C 292.246 246.416,292.028 246.710,287.526 254.408 M315.826 247.300 C 315.722 247.795,315.355 250.810,315.011 254.000 C 314.667 257.190,314.291 260.385,314.175 261.100 L 313.964 262.400 319.335 262.400 C 324.568 262.400,324.713 262.377,324.948 261.500 C 325.551 259.248,325.482 259.200,321.600 259.200 L 318.000 259.200 318.003 257.900 C 318.005 257.185,318.275 254.447,318.603 251.815 C 318.931 249.184,319.200 246.889,319.200 246.715 C 319.200 245.860,316.013 246.412,315.826 247.300 M340.617 246.900 C 340.530 247.175,340.171 250.010,339.818 253.200 C 339.466 256.390,339.072 259.765,338.943 260.700 L 338.709 262.400 340.319 262.400 C 342.188 262.400,341.988 263.027,343.002 254.000 C 343.335 251.030,343.692 248.105,343.794 247.500 C 343.997 246.300,340.986 245.732,340.617 246.900 M266.567 249.443 C 268.445 250.163,266.621 253.200,264.311 253.200 C 263.267 253.200,263.200 253.095,263.200 251.467 C 263.200 249.208,264.274 248.563,266.567 249.443 M293.937 254.000 L 294.748 256.400 292.357 256.400 L 289.966 256.400 291.052 254.500 C 293.074 250.961,292.920 250.988,293.937 254.000 M266.720 256.080 C 268.172 257.532,266.521 259.600,263.911 259.600 C 262.347 259.600,261.854 258.289,262.643 256.233 C 262.938 255.464,265.990 255.350,266.720 256.080 " stroke="none" fill="#fafbfc" fill-rule="evenodd"></path><path id="path1" d="M183.600 0.438 C 90.214 8.503,13.017 81.284,1.762 171.872 L 1.504 173.944 31.223 160.576 C 47.568 153.224,60.993 147.260,61.056 147.322 C 61.284 147.551,59.462 162.612,59.158 163.015 C 58.985 163.243,45.875 169.003,30.023 175.815 C 14.172 182.627,1.255 188.360,1.320 188.555 C 1.384 188.750,13.038 194.446,27.218 201.212 C 50.522 212.332,53.012 213.610,53.123 214.517 C 53.253 215.583,51.734 229.199,51.454 229.480 C 51.363 229.571,39.748 223.875,25.644 216.822 L 0.000 203.999 0.004 207.499 C 0.064 258.546,27.549 315.814,69.141 351.554 C 182.000 448.537,358.207 392.901,394.134 248.940 C 398.557 231.216,401.816 202.181,399.300 202.909 C 398.915 203.021,385.480 209.076,369.444 216.366 C 353.408 223.656,340.190 229.524,340.071 229.405 C 339.895 229.229,341.131 213.945,341.338 213.738 C 341.372 213.704,354.261 208.106,369.980 201.298 C 385.699 194.490,398.620 188.741,398.693 188.521 C 398.766 188.302,388.335 183.158,375.513 177.091 C 362.691 171.023,350.844 165.414,349.186 164.626 L 346.172 163.193 346.926 155.296 C 347.341 150.953,347.733 147.345,347.796 147.277 C 347.860 147.210,359.267 152.833,373.145 159.772 C 397.078 171.740,398.369 172.334,398.196 171.295 C 395.952 157.757,393.557 147.588,390.229 137.460 C 361.409 49.748,275.130 -7.466,183.600 0.438 M111.600 138.181 C 145.184 145.831,147.418 188.893,115.147 206.568 C 108.167 210.392,102.551 211.600,91.756 211.600 C 84.638 211.600,84.000 211.658,83.996 212.300 C 83.987 213.676,80.881 239.253,80.700 239.433 C 80.599 239.534,76.927 239.568,72.539 239.508 L 64.562 239.400 67.056 218.200 C 68.429 206.540,69.562 196.820,69.575 196.600 C 69.591 196.342,74.449 196.200,83.300 196.200 C 98.185 196.200,100.033 196.014,105.800 193.940 C 122.310 188.001,126.659 165.374,113.060 156.173 C 108.702 153.225,107.668 153.076,90.300 152.892 C 76.189 152.743,74.800 152.669,74.802 152.064 C 74.804 151.699,75.163 148.430,75.600 144.800 C 76.037 141.170,76.396 137.958,76.398 137.662 C 76.402 136.791,107.511 137.250,111.600 138.181 M304.200 137.619 C 339.973 141.713,346.072 186.281,313.507 205.628 C 305.972 210.104,301.399 211.239,289.900 211.488 C 284.895 211.597,280.800 211.723,280.800 211.768 C 280.800 211.814,280.081 217.960,279.201 225.426 C 278.322 232.892,277.602 239.135,277.601 239.300 C 277.601 239.465,273.890 239.600,269.355 239.600 L 261.111 239.600 261.338 238.300 C 261.463 237.585,262.570 228.180,263.798 217.400 C 265.026 206.620,266.106 197.440,266.198 197.000 C 266.361 196.218,266.630 196.203,278.047 196.341 C 298.246 196.585,304.819 194.950,311.230 188.085 C 320.656 177.992,320.012 163.216,309.841 156.211 C 305.486 153.211,304.537 153.073,286.975 152.892 L 271.351 152.730 272.056 146.665 C 272.444 143.329,272.871 139.835,273.005 138.900 L 273.249 137.200 286.925 137.203 C 294.446 137.205,302.220 137.392,304.200 137.619 M185.788 138.700 C 185.682 139.305,184.070 153.030,182.206 169.200 C 180.341 185.370,178.727 199.095,178.618 199.700 L 178.420 200.800 193.002 200.800 L 207.585 200.800 207.778 199.900 C 207.885 199.405,209.536 185.230,211.448 168.400 C 213.360 151.570,214.980 137.731,215.049 137.647 C 215.217 137.439,220.681 142.169,222.300 143.924 C 224.068 145.840,224.051 147.700,222.234 151.307 C 221.146 153.468,220.814 154.698,220.588 157.407 L 220.305 160.800 221.573 160.800 C 224.043 160.800,225.639 159.520,227.570 155.988 L 228.753 153.825 229.177 154.938 C 230.409 158.180,229.211 161.523,225.572 164.994 C 222.868 167.573,222.892 167.710,226.283 169.037 C 229.388 170.252,231.316 168.925,233.809 163.855 L 235.213 161.000 235.106 165.800 C 234.971 171.910,233.884 174.034,229.222 177.300 L 228.326 177.927 229.033 181.963 C 229.842 186.589,229.895 186.626,233.058 184.812 C 235.635 183.334,237.165 181.497,239.312 177.302 C 241.410 173.202,241.601 173.202,241.597 177.300 C 241.589 185.763,239.176 190.859,233.220 194.986 L 231.600 196.109 231.600 199.262 L 231.600 202.415 232.700 202.163 C 238.460 200.845,241.888 197.538,245.196 190.108 C 246.751 186.616,246.937 186.539,247.361 189.200 C 249.271 201.182,247.775 206.537,240.232 214.733 L 238.636 216.467 240.218 216.180 C 249.105 214.565,252.337 211.342,254.835 201.600 C 255.417 199.328,255.662 199.876,256.618 205.589 C 258.637 217.667,255.452 224.006,243.150 232.391 L 239.348 234.982 238.644 241.591 C 238.257 245.226,237.867 248.470,237.778 248.800 C 237.666 249.213,238.927 250.147,241.829 251.800 L 246.042 254.200 245.786 257.757 C 245.646 259.714,245.437 261.559,245.323 261.857 C 245.151 262.305,241.246 262.400,222.957 262.400 L 200.800 262.400 200.800 261.557 C 200.800 260.607,205.483 219.320,205.819 217.300 L 206.036 216.000 191.436 216.000 L 176.836 216.000 176.617 217.300 C 176.497 218.015,175.315 228.050,173.990 239.600 C 172.666 251.150,171.493 261.005,171.383 261.500 L 171.185 262.400 148.945 262.400 L 126.706 262.400 126.984 259.300 C 127.428 254.339,127.186 254.673,132.342 251.942 C 134.904 250.586,137.052 249.437,137.115 249.390 C 137.178 249.342,137.609 246.091,138.071 242.166 L 138.912 235.028 136.756 233.234 C 124.522 223.053,123.112 216.883,129.756 202.600 L 131.059 199.800 131.338 203.708 C 131.898 211.546,133.803 213.987,140.768 215.792 C 143.985 216.625,143.958 216.723,141.587 212.778 C 137.057 205.242,137.130 199.499,141.893 188.424 L 142.657 186.648 143.704 190.948 C 145.340 197.660,147.485 200.422,152.133 201.803 C 154.525 202.513,154.184 202.830,154.924 199.203 L 155.536 196.205 153.359 193.923 C 149.110 189.468,148.297 185.481,150.067 177.775 C 151.124 173.175,151.185 173.163,152.342 177.357 C 153.409 181.225,154.579 183.145,156.885 184.816 C 159.453 186.676,159.693 186.527,161.557 181.914 L 163.209 177.827 162.004 176.885 C 158.737 174.327,157.860 170.551,159.209 164.836 C 160.164 160.787,160.364 160.762,161.185 164.588 C 162.170 169.183,164.365 170.379,168.450 168.545 C 171.137 167.340,171.167 167.280,169.757 165.970 C 166.634 163.065,165.672 159.119,167.280 155.811 C 168.242 153.831,168.795 153.501,168.809 154.900 C 168.845 158.564,174.494 163.056,175.349 160.100 C 176.047 157.684,176.066 153.727,175.391 151.016 C 174.247 146.421,174.758 145.514,181.169 140.764 C 185.936 137.231,186.054 137.178,185.788 138.700 M79.980 246.900 C 79.969 247.395,79.564 251.040,79.080 255.000 L 78.200 262.200 70.100 262.308 C 65.645 262.368,61.996 262.278,61.992 262.108 C 61.988 261.939,62.382 258.245,62.869 253.900 L 63.753 246.000 71.877 246.000 L 80.000 246.000 79.980 246.900 M269.631 247.569 C 270.979 248.917,271.188 250.889,270.190 252.820 C 269.643 253.878,269.643 254.122,270.190 255.180 C 271.532 257.776,270.376 260.705,267.492 262.014 C 265.775 262.794,258.404 263.187,258.397 262.500 C 258.389 261.834,260.084 247.364,260.224 246.900 C 260.583 245.710,268.322 246.261,269.631 247.569 M297.750 254.183 C 300.959 263.263,300.897 262.600,298.536 262.600 C 296.761 262.600,296.649 262.532,296.201 261.200 L 295.731 259.800 292.080 259.685 L 288.429 259.570 287.409 261.185 C 286.466 262.680,286.257 262.800,284.595 262.800 C 282.224 262.800,282.127 263.096,287.417 254.181 L 292.033 246.400 293.517 246.401 L 295.000 246.401 297.750 254.183 M319.419 247.300 C 319.310 247.795,319.034 250.000,318.804 252.200 C 318.574 254.400,318.293 256.778,318.178 257.485 L 317.969 258.770 321.685 258.885 L 325.400 259.000 325.259 260.600 C 325.059 262.878,325.267 262.800,319.376 262.800 L 314.000 262.800 314.004 261.500 C 314.006 260.785,314.364 257.320,314.800 253.800 C 315.236 250.280,315.594 247.175,315.596 246.900 C 315.599 246.567,316.270 246.400,317.608 246.400 C 319.481 246.400,319.602 246.460,319.419 247.300 M343.787 249.300 C 343.633 250.895,343.213 254.540,342.853 257.400 L 342.200 262.600 340.647 262.727 C 338.415 262.910,338.418 262.934,339.431 254.600 C 339.940 250.420,340.365 246.865,340.378 246.700 C 340.390 246.535,341.225 246.400,342.234 246.400 L 344.068 246.400 343.787 249.300 M263.595 250.100 C 263.592 250.595,263.481 251.405,263.348 251.900 C 263.131 252.709,263.249 252.800,264.525 252.800 C 266.854 252.800,268.192 250.559,266.426 249.614 C 265.006 248.854,263.601 249.095,263.595 250.100 M291.673 253.944 C 290.074 256.543,290.030 256.400,292.427 256.400 C 294.674 256.400,294.595 256.655,293.416 253.238 L 292.945 251.875 291.673 253.944 M262.800 256.767 C 262.800 257.409,262.691 258.219,262.557 258.567 C 262.255 259.355,265.551 259.489,266.320 258.720 C 267.692 257.348,266.406 255.600,264.026 255.600 C 262.938 255.600,262.800 255.731,262.800 256.767 " stroke="none" fill="#047cfc" fill-rule="evenodd"></path><path id="path2" d="M121.301 172.200 C 121.305 173.080,121.387 173.393,121.483 172.895 C 121.579 172.398,121.575 171.678,121.475 171.295 C 121.375 170.913,121.296 171.320,121.301 172.200 M241.320 178.400 C 241.320 179.610,241.395 180.105,241.487 179.500 C 241.578 178.895,241.578 177.905,241.487 177.300 C 241.395 176.695,241.320 177.190,241.320 178.400 M80.900 196.676 C 81.285 196.776,81.915 196.776,82.300 196.676 C 82.685 196.575,82.370 196.493,81.600 196.493 C 80.830 196.493,80.515 196.575,80.900 196.676 M322.975 198.100 L 321.800 199.400 323.100 198.225 C 323.815 197.579,324.400 196.994,324.400 196.925 C 324.400 196.616,324.070 196.888,322.975 198.100 M184.126 215.900 C 188.266 215.965,194.926 215.965,198.926 215.899 C 202.927 215.834,199.540 215.781,191.400 215.781 C 183.260 215.781,179.987 215.834,184.126 215.900 M289.400 259.454 C 292.228 259.750,295.912 259.777,295.739 259.500 C 295.637 259.335,293.898 259.229,291.876 259.264 C 289.854 259.299,288.740 259.385,289.400 259.454 " stroke="none" fill="#58a8fc" fill-rule="evenodd"></path><path id="path3" d="M83.500 137.499 C 87.515 137.565,94.085 137.565,98.100 137.499 C 102.115 137.434,98.830 137.381,90.800 137.381 C 82.770 137.381,79.485 137.434,83.500 137.499 M280.300 137.499 C 284.315 137.565,290.885 137.565,294.900 137.499 C 298.915 137.434,295.630 137.381,287.600 137.381 C 279.570 137.381,276.285 137.434,280.300 137.499 M325.400 147.600 C 326.259 148.480,327.052 149.200,327.162 149.200 C 327.272 149.200,326.659 148.480,325.800 147.600 C 324.941 146.720,324.148 146.000,324.038 146.000 C 323.928 146.000,324.541 146.720,325.400 147.600 M241.293 175.200 C 241.293 175.970,241.375 176.285,241.476 175.900 C 241.576 175.515,241.576 174.885,241.476 174.500 C 241.375 174.115,241.293 174.430,241.293 175.200 M70.300 196.282 C 70.795 196.378,71.605 196.378,72.100 196.282 C 72.595 196.187,72.190 196.109,71.200 196.109 C 70.210 196.109,69.805 196.187,70.300 196.282 M267.105 196.283 C 267.602 196.379,268.322 196.375,268.705 196.275 C 269.087 196.175,268.680 196.096,267.800 196.101 C 266.920 196.105,266.607 196.187,267.105 196.283 M84.500 196.694 C 85.545 196.776,87.255 196.776,88.300 196.694 C 89.345 196.612,88.490 196.544,86.400 196.544 C 84.310 196.544,83.455 196.612,84.500 196.694 M248.101 197.800 C 248.105 198.680,248.187 198.993,248.283 198.495 C 248.379 197.998,248.375 197.278,248.275 196.895 C 248.175 196.513,248.096 196.920,248.101 197.800 M281.113 196.695 C 282.276 196.776,284.076 196.776,285.113 196.693 C 286.151 196.611,285.200 196.545,283.000 196.546 C 280.800 196.547,279.951 196.614,281.113 196.695 M125.693 216.800 C 125.693 217.570,125.775 217.885,125.876 217.500 C 125.976 217.115,125.976 216.485,125.876 216.100 C 125.775 215.715,125.693 216.030,125.693 216.800 M319.700 259.094 C 320.745 259.176,322.455 259.176,323.500 259.094 C 324.545 259.012,323.690 258.944,321.600 258.944 C 319.510 258.944,318.655 259.012,319.700 259.094 M263.105 259.483 C 263.602 259.579,264.322 259.575,264.705 259.475 C 265.087 259.375,264.680 259.296,263.800 259.301 C 262.920 259.305,262.607 259.387,263.105 259.483 M65.900 262.298 C 68.155 262.370,71.845 262.370,74.100 262.298 C 76.355 262.227,74.510 262.169,70.000 262.169 C 65.490 262.169,63.645 262.227,65.900 262.298 M137.928 262.300 C 144.159 262.362,154.239 262.362,160.328 262.300 C 166.418 262.238,161.320 262.187,149.000 262.187 C 136.680 262.187,131.698 262.238,137.928 262.300 M211.928 262.300 C 218.159 262.362,228.239 262.362,234.328 262.300 C 240.418 262.238,235.320 262.187,223.000 262.187 C 210.680 262.187,205.698 262.238,211.928 262.300 M298.600 262.400 L 296.600 262.674 298.476 262.737 C 299.508 262.772,300.464 262.620,300.600 262.400 C 300.736 262.180,300.792 262.028,300.724 262.063 C 300.656 262.097,299.700 262.249,298.600 262.400 M260.313 262.695 C 261.476 262.776,263.276 262.776,264.313 262.693 C 265.351 262.611,264.400 262.545,262.200 262.546 C 260.000 262.547,259.151 262.614,260.313 262.695 M283.705 262.687 C 284.314 262.779,285.214 262.777,285.705 262.682 C 286.197 262.587,285.700 262.511,284.600 262.514 C 283.500 262.517,283.097 262.595,283.705 262.687 M316.482 262.696 C 317.958 262.773,320.478 262.773,322.082 262.697 C 323.687 262.621,322.480 262.558,319.400 262.558 C 316.320 262.557,315.007 262.619,316.482 262.696 M339.500 262.682 C 339.995 262.778,340.805 262.778,341.300 262.682 C 341.795 262.587,341.390 262.509,340.400 262.509 C 339.410 262.509,339.005 262.587,339.500 262.682 " stroke="none" fill="#3396fc" fill-rule="evenodd"></path><path id="path4" d="M176.575 144.500 L 175.400 145.800 176.700 144.625 C 177.415 143.979,178.000 143.394,178.000 143.325 C 178.000 143.016,177.670 143.288,176.575 144.500 M114.400 156.925 C 114.400 156.994,114.985 157.579,115.700 158.225 L 117.000 159.400 115.825 158.100 C 114.730 156.888,114.400 156.616,114.400 156.925 M170.034 166.247 C 170.565 166.933,171.080 167.423,171.179 167.335 C 171.277 167.247,170.843 166.686,170.213 166.088 L 169.069 165.000 170.034 166.247 M334.537 169.800 C 334.539 171.560,334.609 172.230,334.693 171.289 C 334.778 170.349,334.777 168.909,334.691 168.089 C 334.605 167.270,334.536 168.040,334.537 169.800 M318.109 172.000 C 318.109 172.990,318.187 173.395,318.282 172.900 C 318.378 172.405,318.378 171.595,318.282 171.100 C 318.187 170.605,318.109 171.010,318.109 172.000 M1.293 175.600 C 1.293 176.370,1.375 176.685,1.476 176.300 C 1.576 175.915,1.576 175.285,1.476 174.900 C 1.375 174.515,1.293 174.830,1.293 175.600 M398.493 175.600 C 398.493 176.370,398.575 176.685,398.676 176.300 C 398.776 175.915,398.776 175.285,398.676 174.900 C 398.575 174.515,398.493 174.830,398.493 175.600 M0.893 179.200 C 0.893 179.970,0.975 180.285,1.076 179.900 C 1.176 179.515,1.176 178.885,1.076 178.500 C 0.975 178.115,0.893 178.430,0.893 179.200 M398.893 179.200 C 398.893 179.970,398.975 180.285,399.076 179.900 C 399.176 179.515,399.176 178.885,399.076 178.500 C 398.975 178.115,398.893 178.430,398.893 179.200 M0.509 183.600 C 0.509 184.590,0.587 184.995,0.682 184.500 C 0.778 184.005,0.778 183.195,0.682 182.700 C 0.587 182.205,0.509 182.610,0.509 183.600 M399.309 183.600 C 399.309 184.590,399.387 184.995,399.482 184.500 C 399.578 184.005,399.578 183.195,399.482 182.700 C 399.387 182.205,399.309 182.610,399.309 183.600 M0.131 189.800 C 0.133 191.340,0.205 191.921,0.292 191.091 C 0.379 190.261,0.377 189.001,0.289 188.291 C 0.200 187.581,0.129 188.260,0.131 189.800 M399.728 189.600 C 399.728 191.030,399.801 191.615,399.889 190.900 C 399.978 190.185,399.978 189.015,399.889 188.300 C 399.801 187.585,399.728 188.170,399.728 189.600 M236.175 192.100 L 235.000 193.400 236.300 192.225 C 237.015 191.579,237.600 190.994,237.600 190.925 C 237.600 190.616,237.270 190.888,236.175 192.100 M152.400 192.925 C 152.400 192.994,152.985 193.579,153.700 194.225 L 155.000 195.400 153.825 194.100 C 152.730 192.888,152.400 192.616,152.400 192.925 M77.900 196.682 C 78.395 196.778,79.205 196.778,79.700 196.682 C 80.195 196.587,79.790 196.509,78.800 196.509 C 77.810 196.509,77.405 196.587,77.900 196.682 M91.700 196.676 C 92.085 196.776,92.715 196.776,93.100 196.676 C 93.485 196.575,93.170 196.493,92.400 196.493 C 91.630 196.493,91.315 196.575,91.700 196.676 M126.181 198.100 L 124.600 199.800 126.300 198.219 C 127.881 196.748,128.184 196.400,127.881 196.400 C 127.816 196.400,127.051 197.165,126.181 198.100 M274.505 196.687 C 275.114 196.779,276.014 196.777,276.505 196.682 C 276.997 196.587,276.500 196.511,275.400 196.514 C 274.300 196.517,273.897 196.595,274.505 196.687 M288.500 196.676 C 288.885 196.776,289.515 196.776,289.900 196.676 C 290.285 196.575,289.970 196.493,289.200 196.493 C 288.430 196.493,288.115 196.575,288.500 196.676 M231.309 200.800 C 231.309 201.790,231.387 202.195,231.482 201.700 C 231.578 201.205,231.578 200.395,231.482 199.900 C 231.387 199.405,231.309 199.810,231.309 200.800 M130.674 200.700 C 130.578 200.865,130.645 201.360,130.822 201.800 C 131.103 202.498,131.147 202.460,131.172 201.500 C 131.200 200.415,131.012 200.114,130.674 200.700 M131.600 228.600 C 132.346 229.370,133.047 230.000,133.157 230.000 C 133.267 230.000,132.746 229.370,132.000 228.600 C 131.254 227.830,130.553 227.200,130.443 227.200 C 130.333 227.200,130.854 227.830,131.600 228.600 M269.400 239.200 L 261.400 239.426 269.276 239.513 C 274.192 239.567,277.246 239.450,277.400 239.200 C 277.536 238.980,277.592 238.839,277.524 238.887 C 277.456 238.935,273.800 239.076,269.400 239.200 M68.700 239.498 C 70.955 239.570,74.645 239.570,76.900 239.498 C 79.155 239.427,77.310 239.369,72.800 239.369 C 68.290 239.369,66.445 239.427,68.700 239.498 M263.700 253.076 C 264.085 253.176,264.715 253.176,265.100 253.076 C 265.485 252.975,265.170 252.893,264.400 252.893 C 263.630 252.893,263.315 252.975,263.700 253.076 " stroke="none" fill="#79bcfc" fill-rule="evenodd"></path></g></svg>